<svg width="48" height="48" viewBox="0 0 48 48" fill="none" xmlns="http://www.w3.org/2000/svg">
<circle cx="24.5" cy="32" r="12" fill="#FBA73C"/>
<path fill-rule="evenodd" clip-rule="evenodd" d="M33.985 14.0167L12.9983 21.605L19.99 25.6517L26.155 19.485C26.4677 19.1725 26.8918 18.997 27.3339 18.9972C27.776 18.9973 28.2 19.1731 28.5125 19.4858C28.825 19.7986 29.0005 20.2226 29.0003 20.6647C29.0002 21.1069 28.8244 21.5308 28.5117 21.8433L22.345 28.01L26.395 35L33.985 14.0167ZM34.5233 10.2767C36.515 9.55499 38.445 11.485 37.7233 13.4767L28.92 37.8183C28.1967 39.815 25.47 40.0583 24.405 38.22L19.0433 28.9567L9.78 23.595C7.94167 22.53 8.185 19.8033 10.1817 19.08L34.5233 10.2767Z" fill="#204A1D"/>
</svg>
