<svg width="48" height="48" viewBox="0 0 48 48" fill="none" xmlns="http://www.w3.org/2000/svg">
<circle cx="24.5" cy="32" r="12" fill="#FBA73C"/>
<path d="M10.6667 19.0001C11.0749 19.0002 11.4689 19.15 11.774 19.4213C12.079 19.6926 12.2739 20.0664 12.3217 20.4718L12.3333 20.6668V22.3334C12.3332 24.9207 13.3359 27.4074 15.1308 29.2709C16.9256 31.1344 19.3729 32.2297 21.9583 32.3268L22.3333 32.3334H28.31L26.9883 31.0118C26.6894 30.7118 26.5159 30.3094 26.503 29.8861C26.49 29.4629 26.6387 29.0506 26.9187 28.733C27.1988 28.4154 27.5893 28.2163 28.0108 28.1761C28.4323 28.1359 28.8533 28.2577 29.1883 28.5168L29.345 28.6551L33.5117 32.8218C33.7622 33.0725 33.9262 33.3965 33.98 33.7468L34 34.0168C33.9964 34.3831 33.8723 34.7381 33.6467 35.0268L33.505 35.1851L29.345 39.3451C29.0451 39.644 28.6426 39.8176 28.2194 39.8305C27.7961 39.8434 27.3838 39.6947 27.0662 39.4147C26.7486 39.1346 26.5495 38.7442 26.5093 38.3226C26.4692 37.9011 26.591 37.4801 26.85 37.1451L26.9883 36.9884L28.31 35.6668H22.3333C18.8693 35.6667 15.5412 34.3185 13.0538 31.9077C10.5664 29.4968 9.11492 26.2125 9.00667 22.7501L9 22.3334V20.6668C9 20.2247 9.17559 19.8008 9.48816 19.4883C9.80072 19.1757 10.2246 19.0001 10.6667 19.0001ZM18.655 8.6551C18.9549 8.35619 19.3574 8.18265 19.7806 8.16972C20.2039 8.1568 20.6162 8.30546 20.9338 8.58552C21.2514 8.86557 21.4505 9.25602 21.4907 9.67756C21.5308 10.0991 21.409 10.5201 21.15 10.8551L21.0117 11.0118L19.69 12.3334H25.6667C29.1307 12.3335 32.4588 13.6817 34.9462 16.0926C37.4336 18.5034 38.8851 21.7877 38.9933 25.2501L39 25.6668V27.3334C38.9995 27.7582 38.8369 28.1668 38.5453 28.4757C38.2536 28.7846 37.8551 28.9705 37.431 28.9954C37.0069 29.0203 36.5894 28.8823 36.2636 28.6097C35.9379 28.337 35.7285 27.9503 35.6783 27.5284L35.6667 27.3334V25.6668C35.6668 23.0795 34.6641 20.5928 32.8692 18.7293C31.0744 16.8658 28.6271 15.7705 26.0417 15.6734L25.6667 15.6668H19.69L21.0117 16.9884C21.3106 17.2884 21.4841 17.6908 21.497 18.1141C21.51 18.5373 21.3613 18.9496 21.0813 19.2672C20.8012 19.5848 20.4107 19.7839 19.9892 19.8241C19.5677 19.8643 19.1467 19.7425 18.8117 19.4834L18.655 19.3451L14.4883 15.1784C14.2014 14.8914 14.029 14.5096 14.0035 14.1046C13.978 13.6995 14.1012 13.2991 14.35 12.9784L14.4883 12.8218L18.655 8.6551Z" fill="#204A1D"/>
</svg>
