<svg width="48" height="48" viewBox="0 0 48 48" fill="none" xmlns="http://www.w3.org/2000/svg">
<circle cx="24.5" cy="32" r="12" fill="#FBA73C"/>
<path d="M25.17 7.65837L36.8367 12.0334C37.4722 12.2716 38.0198 12.6981 38.4064 13.256C38.793 13.8138 39.0001 14.4763 39 15.155V24.0934C39.0001 26.8791 38.2244 29.6098 36.7599 31.9795C35.2954 34.3492 33.1999 36.2642 30.7083 37.51L25.1183 40.305C24.7711 40.4787 24.3882 40.5691 24 40.5691C23.6118 40.5691 23.2289 40.4787 22.8817 40.305L17.2917 37.51C14.8001 36.2642 12.7046 34.3492 11.2401 31.9795C9.77562 29.6098 8.99994 26.8791 9 24.0934V15.155C8.99992 14.4763 9.20701 13.8138 9.59359 13.256C9.98017 12.6981 10.5278 12.2716 11.1633 12.0334L22.83 7.65837C23.5844 7.3756 24.4156 7.3756 25.17 7.65837ZM24 10.78L12.3333 15.155V24.0934C12.3337 26.2598 12.9373 28.3834 14.0765 30.2261C15.2157 32.0689 16.8455 33.558 18.7833 34.5267L24 37.1384L29.2167 34.53C31.155 33.5611 32.7851 32.0714 33.9244 30.228C35.0636 28.3846 35.6669 26.2604 35.6667 24.0934V15.155L24 10.78ZM24 17.3334C24.7114 17.3331 25.4043 17.5604 25.9773 17.9821C26.5503 18.4039 26.9733 18.9979 27.1845 19.6772C27.3956 20.3566 27.3839 21.0857 27.151 21.758C26.9181 22.4302 26.4762 23.0103 25.89 23.4134L25.6667 23.555V29C25.6662 29.4248 25.5035 29.8334 25.2119 30.1423C24.9203 30.4512 24.5217 30.6371 24.0977 30.662C23.6736 30.6869 23.256 30.5489 22.9303 30.2763C22.6045 30.0036 22.3952 29.6169 22.345 29.195L22.3333 29V23.555C21.6971 23.1885 21.1996 22.6221 20.9183 21.9439C20.637 21.2656 20.5874 20.5135 20.7774 19.8042C20.9674 19.0949 21.3863 18.4682 21.9691 18.0214C22.5518 17.5746 23.2657 17.3328 24 17.3334Z" fill="#204A1D"/>
</svg>

