<svg width="48" height="48" viewBox="0 0 48 48" fill="none" xmlns="http://www.w3.org/2000/svg">
<circle cx="24.5" cy="32" r="12" fill="#FBA73C"/>
<path d="M24 7.3335C33.195 7.3335 40.6667 14.7418 40.6667 23.9052C40.6667 26.1752 40.385 27.8068 39.9567 29.1268C38.9384 32.2635 36.8334 34.9018 34.4534 37.1268C32.8167 38.6568 30.3884 38.4235 28.93 36.9735C26.86 34.9152 26.2934 31.7202 28.5384 29.4902L30.0717 27.9652C30.8376 27.2044 31.8688 26.7705 32.9482 26.7549C34.0276 26.7394 35.0709 27.1434 35.8584 27.8818C36.32 28.3152 36.5484 28.8318 36.7867 28.0985C37.0884 27.1652 37.3334 25.8868 37.3334 23.9052C37.3334 16.6035 31.3734 10.6668 24 10.6668C16.6267 10.6668 10.6667 16.6035 10.6667 23.9052C10.6667 25.8885 10.9117 27.1635 11.2134 28.0985C11.4517 28.8318 11.68 28.3152 12.1417 27.8818C12.9292 27.1434 13.9725 26.7394 15.0519 26.7549C16.1313 26.7705 17.1625 27.2044 17.9284 27.9652L19.4617 29.4902C21.7067 31.7202 21.14 34.9152 19.07 36.9735C17.6117 38.4235 15.1834 38.6568 13.5467 37.1285C11.15 34.8885 9.06837 32.2818 8.04337 29.1285C7.61671 27.8052 7.33337 26.1735 7.33337 23.9035C7.33337 14.7418 14.805 7.3335 24 7.3335ZM32.42 30.3302C31.4567 31.2868 29.4367 32.7752 30.8867 34.2185C31.2067 34.5352 31.705 35.1318 32.1767 34.6918C33.24 33.6985 34.2817 32.5752 34.9817 31.6302C34.4317 31.1135 33.2717 29.4852 32.42 30.3302ZM15.58 30.3302C14.73 29.4852 13.5684 31.1135 13.0184 31.6302C13.7184 32.5752 14.76 33.6968 15.8234 34.6918C16.2934 35.1318 16.7934 34.5368 17.1134 34.2185C18.5634 32.7752 16.5434 31.2868 15.58 30.3302Z" fill="#204A1D"/>
</svg>
